PathFileType	4	(X/Y/Z)	RBDS018\RBDS018runT45.trc
DataRate	CameraRate	NumFrames	NumMarkers	Units	OrigDataRate	OrigDataStartFrame	OrigNumFrames
150.000000	150.000000	5	33	mm	150.000000	2250	4500
Frame#	Time	L.ASIS			L.Heel.Bottom			L.Heel.Lateral			L.Heel.Top			L.Iliac.Crest			L.MT1			L.MT5			L.PSIS			L.Shank.Bottom.Lateral			L.Shank.Bottom.Medial			L.Shank.Top.Lateral			L.Shank.Top.Medial			L.Thigh.Bottom.Lateral			L.Thigh.Bottom.Medial			L.Thigh.Top.Lateral			L.Thigh.Top.Medial			R.ASIS			R.ASY			R.Heel.Bottom			R.Heel.Lateral			R.Heel.Top			R.Iliac.Crest			R.MT1			R.MT5			R.PSIS			R.Shank.Bottom.Lateral			R.Shank.Bottom.Medial			R.Shank.Top.Lateral			R.Shank.Top.Medial			R.Thigh.Bottom.Lateral			R.Thigh.Bottom.Medial			R.Thigh.Top.Lateral			R.Thigh.Top.Medial			
		X1	Y1	Z1	X2	Y2	Z2	X3	Y3	Z3	X4	Y4	Z4	X5	Y5	Z5	X6	Y6	Z6	X7	Y7	Z7	X8	Y8	Z8	X9	Y9	Z9	X10	Y10	Z10	X11	Y11	Z11	X12	Y12	Z12	X13	Y13	Z13	X14	Y14	Z14	X15	Y15	Z15	X16	Y16	Z16	X17	Y17	Z17	X18	Y18	Z18	X19	Y19	Z19	X20	Y20	Z20	X21	Y21	Z21	X22	Y22	Z22	X23	Y23	Z23	X24	Y24	Z24	X25	Y25	Z25	X26	Y26	Z26	X27	Y27	Z27	X28	Y28	Z28	X29	Y29	Z29	X30	Y30	Z30	X31	Y31	Z31	X32	Y32	Z32	X33	Y33	Z33	

2251	15	2266.584805466603	959.299147043074	896.1874337099463	1943.092643016566	591.3076479274398	930.5667463818593	1951.79534576565	559.9823913120678	884.7984509428436	1991.471326923111	577.1127343161207	930.9523055800217	2205.862780278479	1037.949245674802	832.256133524261	1934.522237978759	369.8218510156503	974.5018369935872	1940.907131434906	395.6292593471685	862.8792012985592	2086.676420239238	1000.917022204638	914.3767676299969	2100.245166838137	532.0261772617677	866.5570486497251	2099.742401848437	567.6567444105418	903.4052997518236	2178.50005992138	544.5414821150209	850.9015519398736	2182.130629026537	580.9835723058404	889.3856064147493	2382.752936757032	613.6519192546879	817.9897746151572	2327.411778058469	580.3909656461836	852.2104530707094	2321.202581916908	702.8926325108021	804.3576368523155	2266.354981984033	669.5872022032229	832.7997444581807	2229.964882542468	991.1327470544609	1125.077939726225	170942102848.8225	-151296190.6571147	-57444987.77604381	1935.673089430252	43.7468874490805	959.6499409644435	1954.371078160867	55.40880912881848	1000.022887356111	1952.199576188169	92.14195255488987	964.3674716508558	2158.581259677771	1056.604292935709	1138.430873229148	2163.80979693196	47.78291950436952	942.7621131817608	2120.664392208306	40.32138737285801	1049.662723416717	2067.603883186253	1013.062144209413	1019.3178558073	2063.577842597493	177.806922644223	1063.508064514666	2026.592155208787	206.8868020524792	1033.743153343469	2091.957569264862	247.8695917449414	1094.287120431844	2056.62792712668	275.4514363904614	1063.378504430237	2194.707686940991	575.4853345805674	1159.425670733539	2141.168304876903	569.1356968230493	1111.206492033804	2165.099322642826	680.7905275713151	1176.071662051277	2113.513917355219	673.8986794530624	1132.013735949327	
2252	15.00666666666667	2265.287076000673	964.8073717911781	895.3530096472051	1952.283382479804	572.5786665072673	930.4780427571782	1963.473289914474	542.5607650832899	884.3295262461166	2001.620771693679	562.2351607583737	930.7046792073063	2202.802732488465	1042.033067955272	833.3369904974602	1960.94604371668	350.8265085881721	972.0315021223125	1965.355178317241	377.9990900114432	860.6405315393951	2085.844660250883	1004.544519198447	917.215710160837	2113.477813974623	524.3175533149147	865.9994511342826	2110.580302957626	560.2936845555196	902.3403326358874	2190.489276946944	542.3746456187732	849.8085670308961	2191.638718446663	579.4680535051173	887.9227110243232	2393.618259201146	626.849043971026	818.1764925097112	2340.047874754845	591.1026806966297	852.8619887368444	2327.849107806467	713.2301039343301	804.8539555882944	2274.877431316125	677.6023450371259	834.0572654168519	2231.185705897475	992.8041420975043	1124.997323233885	171228123151.0747	-151547499.8721665	-57541149.09505647	1905.125196075363	47.35846670125215	960.5383038767035	1923.969810848554	57.9535880512291	1001.06895657084	1922.280774042273	95.51615872736613	966.0013215152652	2160.085927823005	1060.708335727647	1139.177295152689	2132.981738826332	47.69474185669063	943.1362232032916	2090.151608202955	40.00720577971483	1049.941751675215	2068.04626120899	1015.921557907404	1022.30756402795	2035.374646709904	180.4751487639115	1063.904444377858	1999.108499854362	210.4837619638262	1034.197526067927	2065.629133367982	249.802114592949	1094.342944638652	2030.909539804237	278.2335090521963	1063.551132927413	2180.406750240631	575.7428390243165	1158.569919121422	2125.75443926846	571.688935831299	1111.456144004603	2155.687178354525	682.2786735241099	1175.4581326138	2103.110308032703	677.6584728768634	1132.319984650814	
2253	15.01333333333333	2264.415715486763	971.0296327141881	894.4025138868997	1962.256552718901	552.3651073432374	931.2614725515099	1975.736828515101	524.0107631769639	884.5648331615481	2012.268984727296	546.0277612239054	931.0847056031054	2200.313442993961	1046.652937859988	834.5948307788142	1988.553931423128	331.5760164714234	969.4471287945893	1990.443232659665	360.3065785083962	858.4692921975146	2085.469805513563	1008.588783815926	920.4722502994092	2126.505545318212	516.1696324213442	865.9219672940756	2121.165368942354	552.0302929085636	902.040504705527	2201.865305930883	539.9460221573695	849.2912264637054	2200.464619538687	577.190231003686	887.3116610267032	2403.177956109418	640.1496290381966	818.5883644847061	2351.397495570901	602.3610323572348	853.945661897732	2333.728326599684	723.7540676204152	805.4558175096751	2282.620246536816	686.2139109696941	835.5761431715142	2233.214150814434	994.6596468083688	1124.667547514922	171514462321.5949	-151799087.1988781	-57637417.66108901	1874.925946587664	52.11962072499575	961.4040630057594	1893.993160358551	61.54762074514425	1002.059517794906	1892.99656511492	99.91946757563088	967.5288153886738	2162.830804649053	1065.060936930327	1140.077338782173	2102.276745984548	47.31624247009444	943.3371938826141	2059.813156756355	39.71696862526534	1050.059629090104	2069.080514190615	1019.25694370127	1025.794319127312	2007.434093381826	184.2322524263674	1064.078593629645	1971.833484952118	214.998040153173	1034.35319532579	2039.299684173842	252.9198927157089	1094.171463631851	2005.112418305245	282.0284263327385	1063.435225933589	2165.838842366438	576.9872281744106	1157.37586860629	2110.198915107174	575.506804159151	1111.383106026256	2146.328719287929	684.5256980933619	1174.707424352395	2092.868124962125	682.4241448696843	1132.520088744495	
2254	15.02	2263.982053413872	977.7441979319444	893.4619461298192	1973.356200233727	530.8720320356638	932.828586870244	1988.853256364898	504.4875970462854	885.4543114683343	2023.728307756028	528.6323728615712	932.0491337605889	2198.450662951273	1051.758110734542	836.011987654771	2017.38805954878	312.3722389060886	966.7566192854748	2016.210498080275	342.7451096846935	856.3760690655965	2085.533539340016	1013.016146908558	924.0819526379703	2139.548692786855	507.5987177879287	866.2814736203345	2131.805700373881	542.859471477055	902.4866703077903	2212.82465490073	537.1555384681394	849.345518049045	2208.905215437688	574.0256726097833	887.568715466403	2411.462061502669	653.2460851278247	819.1908204044355	2361.413392065685	613.8449011294662	855.3646736307622	2338.874413639126	734.222715217838	806.1160584759031	2289.541330184326	695.1581851153652	837.2267935428015	2235.955490622693	996.6609428986607	1124.18098726694	171801120538.0284	-152050952.7910376	-57733793.53391042	1845.356455623342	58.2600852043074	962.2027529463488	1864.702438243098	66.42862666630306	1002.950654595717	1864.657865843137	105.5268797120343	968.902327348004	2166.803919517213	1069.499285840412	1141.121267172984	2071.78873867331	46.68628775841938	943.3990929644833	2029.724080764801	39.50029813356221	1050.022936089284	2070.683889567385	1023.062799630517	1029.702158825593	1980.003856930513	189.2059447060922	1064.040154699117	1945.042984822288	220.530994294765	1034.162555709255	2013.193314911192	257.3897473691424	1093.764621181916	1979.494013796261	286.981462810579	1062.969885162769	2151.181501766186	579.3482565456663	1155.861127542601	2094.760589585291	580.7158524678462	1110.94489345873	2137.145114039242	687.599756182405	1173.872064492219	2082.975546587402	688.2550568254461	1132.614716468107	
2255	15.02666666666667	2263.983250047544	984.7625621030915	892.646918294782	1985.848246390001	508.3370442320046	935.0423909081662	2003.03895333039	484.1654447028889	886.908562495774	2036.249453550782	510.2254888597947	933.5220234355918	2197.246044707138	1057.341946709601	837.5589619449615	2047.439429854913	293.4838001599745	963.9967256521884	2042.686221905014	325.4701038031685	854.3840652660251	2086.002303921157	1017.800321668604	927.9603010228457	2152.802389227114	498.6224237007757	867.0189170406014	2142.777331656271	532.8096826205375	903.6154998706598	2223.557371213098	533.9111521568857	849.9410958380284	2217.24416251791	569.896261664323	888.659303930183	2418.545194430346	665.8908763226588	819.952254033529	2370.104162190389	625.2677774136331	857.0146840594992	2343.340472703077	744.4423625718568	806.7980781951682	2295.63234879894	704.1999103344397	838.8895647593491	2239.297827115479	998.7856403290002	1123.618277689288	172088097978.0205	-152303096.8024332	-57830276.7732897	1816.746957815946	65.9851421825545	962.8877499505617	1836.38886245879	72.80352628521408	1003.705073214014	1837.607436142802	112.4822789709675	970.0972611180343	2171.946029884514	1073.894085991596	1142.274429742213	2041.628716817952	45.87343624462877	943.3810306456585	1999.956604438984	39.41960011255905	1049.862585388436	2072.821945210019	1027.319243415111	1033.935935527704	1953.338826532878	195.4501060288611	1063.828505416193	1919.027855454496	227.1136083020905	1033.609770597191	1987.546628853251	263.2965495937876	1093.141592954207	1954.332483297227	293.1604656213443	1062.124636700963	2136.614927807832	582.9218163180317	1154.083487415819	2079.684547040739	587.3853862949618	1110.149148244451	2128.254344562543	691.5549080051081	1173.015237516197	2073.605441703309	695.1773651360381	1132.620830413226	
